<?xml version="1.0" standalone="no"?>
<!DOCTYPE svg PUBLIC "-//W3C//DTD SVG 20010904//EN"
 "http://www.w3.org/TR/2001/REC-SVG-20010904/DTD/svg10.dtd">
<svg version="1.0" xmlns="http://www.w3.org/2000/svg"
 width="850.000000pt" height="478.000000pt" viewBox="0 0 850.000000 478.000000"
 preserveAspectRatio="xMidYMid meet">

<g transform="translate(0.000000,478.000000) scale(0.100000,-0.100000)"
fill="#000000" stroke="none">
<path d="M3895 4653 c-22 -2 -195 -15 -385 -28 -380 -28 -978 -72 -1481 -110
-179 -14 -333 -25 -342 -25 -26 0 -24 -44 38 -680 9 -91 20 -210 25 -265 5
-55 25 -266 45 -470 19 -203 53 -559 75 -790 66 -690 69 -725 81 -841 l11
-111 222 -115 c121 -64 298 -156 391 -204 178 -92 208 -107 318 -169 43 -24
72 -34 78 -28 6 6 6 52 0 124 -5 63 -12 170 -16 239 -20 419 -47 845 -53 851
-4 3 -36 16 -72 29 -36 13 -77 29 -91 36 l-26 13 -12 208 c-7 114 -13 226 -14
248 l-2 40 57 9 56 9 32 -37 c18 -20 36 -36 41 -36 6 0 7 43 3 108 -4 59 -7
188 -7 287 0 151 4 193 22 259 37 139 105 221 207 251 76 22 126 19 317 -19
254 -51 243 -50 372 -26 64 12 118 21 120 19 1 -2 6 -131 10 -286 l8 -281 -98
-31 c-146 -46 -148 -46 -279 -12 -139 36 -169 38 -196 11 -23 -23 -26 -50 -6
-50 18 0 53 -43 73 -90 30 -71 12 -203 -35 -252 l-26 -28 33 0 c50 0 153 -29
176 -50 31 -28 222 -37 299 -15 32 9 59 15 62 13 2 -2 -1 -56 -6 -119 -5 -63
-14 -175 -20 -249 -6 -74 -14 -138 -18 -142 -4 -4 -56 -28 -115 -52 l-107 -45
-127 44 c-69 25 -128 43 -130 41 -2 -2 9 -18 26 -35 17 -17 28 -31 25 -31 -3
0 3 -12 14 -27 38 -55 83 -208 98 -338 15 -122 3 -317 -24 -415 -6 -19 -13
-82 -16 -140 -3 -58 -11 -134 -17 -170 -18 -114 -18 -120 2 -133 13 -8 15 -15
7 -24 -8 -10 -7 -13 3 -14 50 -3 91 -19 224 -89 378 -197 496 -253 519 -242
11 5 226 140 476 299 250 159 519 329 597 379 78 49 178 112 221 139 43 28
180 114 303 192 123 78 260 166 304 196 l80 53 11 119 c6 66 17 190 23 275 12
154 28 338 56 645 8 88 26 300 40 470 77 950 95 1162 113 1372 l17 192 -60 5
c-33 3 -103 8 -155 11 -158 9 -877 53 -1211 75 -980 62 -1048 65 -1184 53z
m2258 -1669 c12 -4 13 -19 9 -71 l-5 -66 34 6 c19 3 42 8 52 12 24 10 22 -5
-14 -102 l-30 -83 16 -58 c9 -31 18 -65 21 -74 3 -11 -5 -22 -25 -32 -35 -18
-38 -15 -56 53 l-11 46 -7 -65 c-4 -35 -12 -69 -17 -74 -6 -6 -26 -10 -46 -10
-28 0 -44 -8 -70 -34 -27 -27 -40 -33 -66 -30 -27 2 -35 9 -43 35 l-11 32 -17
-49 c-18 -51 -62 -96 -103 -106 -29 -7 -64 19 -64 47 0 10 -4 21 -10 24 -5 3
-10 -3 -10 -15 0 -26 -32 -90 -56 -111 -35 -31 -89 -52 -131 -52 -29 0 -43 -5
-43 -14 0 -7 -19 -25 -42 -39 -50 -32 -109 -42 -125 -22 -23 27 -46 104 -47
153 -1 49 -2 50 -33 53 -24 2 -39 -3 -58 -22 -22 -22 -25 -33 -25 -100 0 -41
5 -78 10 -81 6 -4 26 5 45 19 47 36 55 33 55 -19 0 -49 -18 -72 -75 -100 -86
-40 -125 4 -125 143 0 40 -4 61 -10 57 -6 -4 -10 -58 -10 -130 0 -123 0 -125
-26 -142 -14 -9 -34 -17 -43 -18 -10 0 -31 -10 -47 -21 -66 -46 -87 -41 -119
31 -37 85 -40 110 -14 134 13 12 27 21 32 21 5 0 36 12 68 26 52 24 59 30 59
55 0 34 -5 35 -60 13 -57 -23 -70 -14 -70 43 l0 48 73 23 c39 12 84 22 99 22
21 0 31 8 44 35 21 46 38 54 132 65 47 5 78 13 81 21 13 39 47 56 125 62 89 6
99 4 115 -26 10 -20 11 -20 7 8 -3 17 -9 50 -15 75 -6 25 -10 69 -11 98 0 49
2 54 33 72 17 11 49 20 71 20 l39 0 -5 -69 c-3 -38 -2 -74 1 -80 12 -18 87 8
99 35 12 25 25 29 113 39 47 5 60 11 78 36 17 23 29 29 59 29 20 0 53 4 71 10
24 7 39 6 48 -1 16 -14 16 -6 0 47 -6 23 -11 64 -9 91 3 40 8 52 30 65 28 17
61 22 85 12z m-1383 -569 c0 -49 -2 -53 -29 -65 -29 -11 -41 -34 -41 -77 0
-20 3 -21 31 -11 16 6 33 8 36 5 3 -3 2 -29 -2 -57 -6 -45 -11 -53 -36 -62
l-29 -10 0 -152 0 -152 -45 -22 c-41 -20 -47 -20 -80 -6 l-36 15 3 112 c2 62
7 120 12 129 6 13 0 20 -23 33 -28 14 -31 20 -31 66 0 46 2 50 23 48 12 -1 35
-1 51 -1 l28 2 -28 38 c-23 30 -29 46 -28 84 3 80 42 125 104 119 14 -1 33 4
44 12 10 7 31 11 47 9 28 -4 29 -6 29 -57z m-640 -1614 c20 -39 -22 -82 -60
-61 -20 11 -24 22 -20 50 5 34 63 42 80 11z"/>
<path d="M5970 2651 c-13 -24 -13 -151 -1 -151 6 0 12 21 15 48 4 26 10 64 15
85 6 28 5 37 -5 37 -7 0 -18 -9 -24 -19z"/>
<path d="M5786 2579 c-18 -26 -23 -159 -6 -159 6 0 10 2 10 4 0 2 7 39 15 82
16 83 8 112 -19 73z"/>
<path d="M5693 2495 c0 -22 2 -30 4 -17 2 12 2 30 0 40 -3 9 -5 -1 -4 -23z"/>
<path d="M5580 2494 c-16 -19 -27 -174 -13 -174 11 0 28 58 37 120 2 19 7 43
11 53 9 22 -17 23 -35 1z"/>
<path d="M5356 2414 c-15 -15 -23 -54 -10 -54 18 0 44 23 44 40 0 26 -16 33
-34 14z"/>
<path d="M5472 2400 c0 -14 2 -19 5 -12 2 6 2 18 0 25 -3 6 -5 1 -5 -13z"/>
<path d="M5395 2299 c-60 -25 -68 -31 -59 -52 9 -24 29 -21 72 8 46 31 50 31
55 -2 2 -17 5 -10 6 20 1 54 -1 55 -74 26z"/>
<path d="M5012 2280 c0 -14 2 -19 5 -12 2 6 2 18 0 25 -3 6 -5 1 -5 -13z"/>
<path d="M4888 2059 c-21 -12 -24 -49 -5 -49 19 0 37 21 37 42 0 20 -7 22 -32
7z"/>
</g>
</svg>
